<mxfile host="Electron" modified="2023-04-03T10:46:17.595Z" agent="Mozilla/5.0 (Windows NT 10.0; Win64; x64) AppleWebKit/537.36 (KHTML, like Gecko) draw.io/21.1.2 Chrome/106.0.5249.199 Electron/21.4.3 Safari/537.36" etag="bS-jpxpYotB-Q-s71Vn1" version="21.1.2" type="device">
  <diagram name="Page-1" id="DCSEYxSq6f8UpFpC5DhJ">
    <mxGraphModel dx="3187" dy="1858" grid="1" gridSize="10" guides="1" tooltips="1" connect="1" arrows="1" fold="1" page="1" pageScale="1" pageWidth="850" pageHeight="1100" math="0" shadow="0">
      <root>
        <mxCell id="0" />
        <mxCell id="1" parent="0" />
        <mxCell id="Gy4se_GqXcURq6uCOFtO-5" value="" style="edgeStyle=orthogonalEdgeStyle;rounded=0;orthogonalLoop=1;jettySize=auto;html=1;" parent="1" source="Gy4se_GqXcURq6uCOFtO-2" target="Gy4se_GqXcURq6uCOFtO-4" edge="1">
          <mxGeometry relative="1" as="geometry" />
        </mxCell>
        <mxCell id="Gy4se_GqXcURq6uCOFtO-2" value="START" style="strokeWidth=2;html=1;shape=mxgraph.flowchart.start_1;whiteSpace=wrap;" parent="1" vertex="1">
          <mxGeometry x="100" y="30" width="100" height="60" as="geometry" />
        </mxCell>
        <mxCell id="Gy4se_GqXcURq6uCOFtO-3" value="END" style="strokeWidth=2;html=1;shape=mxgraph.flowchart.start_1;whiteSpace=wrap;" parent="1" vertex="1">
          <mxGeometry x="100" y="1245" width="100" height="60" as="geometry" />
        </mxCell>
        <mxCell id="Gy4se_GqXcURq6uCOFtO-8" value="" style="edgeStyle=orthogonalEdgeStyle;rounded=0;orthogonalLoop=1;jettySize=auto;html=1;" parent="1" source="Gy4se_GqXcURq6uCOFtO-4" target="Gy4se_GqXcURq6uCOFtO-7" edge="1">
          <mxGeometry relative="1" as="geometry" />
        </mxCell>
        <mxCell id="Gy4se_GqXcURq6uCOFtO-4" value="INITIALIZE variables and txt file" style="whiteSpace=wrap;html=1;strokeWidth=2;" parent="1" vertex="1">
          <mxGeometry x="70" y="130" width="160" height="60" as="geometry" />
        </mxCell>
        <mxCell id="Gy4se_GqXcURq6uCOFtO-10" value="" style="edgeStyle=orthogonalEdgeStyle;rounded=0;orthogonalLoop=1;jettySize=auto;html=1;" parent="1" source="Gy4se_GqXcURq6uCOFtO-7" target="Gy4se_GqXcURq6uCOFtO-9" edge="1">
          <mxGeometry relative="1" as="geometry" />
        </mxCell>
        <mxCell id="Gy4se_GqXcURq6uCOFtO-7" value="ASM_READ&amp;nbsp;" style="shape=process;whiteSpace=wrap;html=1;backgroundOutline=1;strokeWidth=2;" parent="1" vertex="1">
          <mxGeometry x="70" y="240" width="160" height="60" as="geometry" />
        </mxCell>
        <mxCell id="Gy4se_GqXcURq6uCOFtO-13" style="edgeStyle=orthogonalEdgeStyle;rounded=0;orthogonalLoop=1;jettySize=auto;html=1;exitX=1;exitY=0.5;exitDx=0;exitDy=0;" parent="1" source="Gy4se_GqXcURq6uCOFtO-9" edge="1">
          <mxGeometry relative="1" as="geometry">
            <Array as="points">
              <mxPoint x="320" y="385" />
              <mxPoint x="320" y="1130" />
            </Array>
            <mxPoint x="150" y="1130" as="targetPoint" />
          </mxGeometry>
        </mxCell>
        <mxCell id="Gy4se_GqXcURq6uCOFtO-45" value="" style="edgeStyle=orthogonalEdgeStyle;rounded=0;orthogonalLoop=1;jettySize=auto;html=1;" parent="1" source="Gy4se_GqXcURq6uCOFtO-9" target="Gy4se_GqXcURq6uCOFtO-44" edge="1">
          <mxGeometry relative="1" as="geometry" />
        </mxCell>
        <mxCell id="Gy4se_GqXcURq6uCOFtO-9" value="IF error is encountered" style="rhombus;whiteSpace=wrap;html=1;strokeWidth=2;" parent="1" vertex="1">
          <mxGeometry x="97.5" y="340" width="105" height="90" as="geometry" />
        </mxCell>
        <mxCell id="Gy4se_GqXcURq6uCOFtO-11" value="ASM_INITIALIZE" style="shape=process;whiteSpace=wrap;html=1;backgroundOutline=1;strokeWidth=2;" parent="1" vertex="1">
          <mxGeometry x="70" y="710" width="160" height="60" as="geometry" />
        </mxCell>
        <mxCell id="Gy4se_GqXcURq6uCOFtO-21" value="" style="edgeStyle=orthogonalEdgeStyle;rounded=0;orthogonalLoop=1;jettySize=auto;html=1;exitX=0.5;exitY=1;exitDx=0;exitDy=0;entryX=0.5;entryY=0;entryDx=0;entryDy=0;" parent="1" source="dxJv8WcYAOSbDoX47LLL-103" target="dxJv8WcYAOSbDoX47LLL-125" edge="1">
          <mxGeometry relative="1" as="geometry">
            <mxPoint x="150" y="1130" as="sourcePoint" />
            <mxPoint x="150" y="1155" as="targetPoint" />
          </mxGeometry>
        </mxCell>
        <mxCell id="Gy4se_GqXcURq6uCOFtO-17" style="edgeStyle=orthogonalEdgeStyle;rounded=0;orthogonalLoop=1;jettySize=auto;html=1;entryX=0.5;entryY=0;entryDx=0;entryDy=0;exitX=0.5;exitY=1;exitDx=0;exitDy=0;" parent="1" source="dxJv8WcYAOSbDoX47LLL-119" target="dxJv8WcYAOSbDoX47LLL-103" edge="1">
          <mxGeometry relative="1" as="geometry">
            <mxPoint x="200" y="1070" as="sourcePoint" />
            <mxPoint x="150" y="900" as="targetPoint" />
          </mxGeometry>
        </mxCell>
        <mxCell id="Gy4se_GqXcURq6uCOFtO-22" value="" style="edgeStyle=orthogonalEdgeStyle;rounded=0;orthogonalLoop=1;jettySize=auto;html=1;exitX=0.5;exitY=1;exitDx=0;exitDy=0;" parent="1" source="dxJv8WcYAOSbDoX47LLL-125" target="Gy4se_GqXcURq6uCOFtO-3" edge="1">
          <mxGeometry relative="1" as="geometry">
            <mxPoint x="150" y="1215" as="sourcePoint" />
          </mxGeometry>
        </mxCell>
        <mxCell id="Gy4se_GqXcURq6uCOFtO-26" value="" style="edgeStyle=orthogonalEdgeStyle;rounded=0;orthogonalLoop=1;jettySize=auto;html=1;" parent="1" source="Gy4se_GqXcURq6uCOFtO-23" target="Gy4se_GqXcURq6uCOFtO-25" edge="1">
          <mxGeometry relative="1" as="geometry" />
        </mxCell>
        <mxCell id="Gy4se_GqXcURq6uCOFtO-23" value="ASM_READ" style="strokeWidth=2;html=1;shape=mxgraph.flowchart.start_1;whiteSpace=wrap;" parent="1" vertex="1">
          <mxGeometry x="630" y="30" width="100" height="60" as="geometry" />
        </mxCell>
        <mxCell id="Gy4se_GqXcURq6uCOFtO-24" value="RETURN" style="strokeWidth=2;html=1;shape=mxgraph.flowchart.start_1;whiteSpace=wrap;" parent="1" vertex="1">
          <mxGeometry x="630" y="1040" width="100" height="60" as="geometry" />
        </mxCell>
        <mxCell id="Gy4se_GqXcURq6uCOFtO-28" value="" style="edgeStyle=orthogonalEdgeStyle;rounded=0;orthogonalLoop=1;jettySize=auto;html=1;" parent="1" source="Gy4se_GqXcURq6uCOFtO-25" target="Gy4se_GqXcURq6uCOFtO-27" edge="1">
          <mxGeometry relative="1" as="geometry" />
        </mxCell>
        <mxCell id="Gy4se_GqXcURq6uCOFtO-25" value="GET user input file location" style="whiteSpace=wrap;html=1;strokeWidth=2;" parent="1" vertex="1">
          <mxGeometry x="620" y="110" width="120" height="60" as="geometry" />
        </mxCell>
        <mxCell id="Gy4se_GqXcURq6uCOFtO-30" value="" style="edgeStyle=orthogonalEdgeStyle;rounded=0;orthogonalLoop=1;jettySize=auto;html=1;" parent="1" source="Gy4se_GqXcURq6uCOFtO-27" target="Gy4se_GqXcURq6uCOFtO-29" edge="1">
          <mxGeometry relative="1" as="geometry" />
        </mxCell>
        <mxCell id="Gy4se_GqXcURq6uCOFtO-35" value="" style="edgeStyle=orthogonalEdgeStyle;rounded=0;orthogonalLoop=1;jettySize=auto;html=1;entryX=1;entryY=0.5;entryDx=0;entryDy=0;" parent="1" source="Gy4se_GqXcURq6uCOFtO-27" target="dxJv8WcYAOSbDoX47LLL-126" edge="1">
          <mxGeometry relative="1" as="geometry">
            <mxPoint x="545" y="230" as="targetPoint" />
          </mxGeometry>
        </mxCell>
        <mxCell id="Gy4se_GqXcURq6uCOFtO-27" value="IF file exists" style="rhombus;whiteSpace=wrap;html=1;strokeWidth=2;" parent="1" vertex="1">
          <mxGeometry x="640" y="190" width="80" height="80" as="geometry" />
        </mxCell>
        <mxCell id="Gy4se_GqXcURq6uCOFtO-41" value="" style="edgeStyle=orthogonalEdgeStyle;rounded=0;orthogonalLoop=1;jettySize=auto;html=1;" parent="1" source="Gy4se_GqXcURq6uCOFtO-29" target="Gy4se_GqXcURq6uCOFtO-40" edge="1">
          <mxGeometry relative="1" as="geometry" />
        </mxCell>
        <mxCell id="Gy4se_GqXcURq6uCOFtO-29" value="OPEN file" style="whiteSpace=wrap;html=1;strokeWidth=2;" parent="1" vertex="1">
          <mxGeometry x="620" y="320" width="120" height="60" as="geometry" />
        </mxCell>
        <mxCell id="Gy4se_GqXcURq6uCOFtO-32" value="RETURN" style="strokeWidth=2;html=1;shape=mxgraph.flowchart.start_1;whiteSpace=wrap;" parent="1" vertex="1">
          <mxGeometry x="445" y="300" width="100" height="60" as="geometry" />
        </mxCell>
        <mxCell id="Gy4se_GqXcURq6uCOFtO-53" value="" style="edgeStyle=orthogonalEdgeStyle;rounded=0;orthogonalLoop=1;jettySize=auto;html=1;" parent="1" source="Gy4se_GqXcURq6uCOFtO-37" target="Gy4se_GqXcURq6uCOFtO-47" edge="1">
          <mxGeometry relative="1" as="geometry" />
        </mxCell>
        <mxCell id="Gy4se_GqXcURq6uCOFtO-37" value="GET current line number" style="whiteSpace=wrap;html=1;strokeWidth=2;" parent="1" vertex="1">
          <mxGeometry x="620" y="550" width="120" height="60" as="geometry" />
        </mxCell>
        <mxCell id="Gy4se_GqXcURq6uCOFtO-42" value="" style="edgeStyle=orthogonalEdgeStyle;rounded=0;orthogonalLoop=1;jettySize=auto;html=1;" parent="1" target="Gy4se_GqXcURq6uCOFtO-37" edge="1">
          <mxGeometry relative="1" as="geometry">
            <mxPoint x="680" y="490" as="sourcePoint" />
          </mxGeometry>
        </mxCell>
        <mxCell id="Gy4se_GqXcURq6uCOFtO-85" style="edgeStyle=orthogonalEdgeStyle;rounded=0;orthogonalLoop=1;jettySize=auto;html=1;" parent="1" source="Gy4se_GqXcURq6uCOFtO-40" edge="1">
          <mxGeometry relative="1" as="geometry">
            <mxPoint x="680" y="1010" as="targetPoint" />
            <Array as="points">
              <mxPoint x="500" y="460" />
              <mxPoint x="500" y="1010" />
            </Array>
          </mxGeometry>
        </mxCell>
        <mxCell id="Gy4se_GqXcURq6uCOFtO-40" value="IF line exists" style="rhombus;whiteSpace=wrap;html=1;strokeWidth=2;" parent="1" vertex="1">
          <mxGeometry x="640" y="420" width="80" height="80" as="geometry" />
        </mxCell>
        <mxCell id="dxJv8WcYAOSbDoX47LLL-109" style="edgeStyle=orthogonalEdgeStyle;rounded=0;orthogonalLoop=1;jettySize=auto;html=1;exitX=0.5;exitY=1;exitDx=0;exitDy=0;entryX=0.5;entryY=0;entryDx=0;entryDy=0;" edge="1" parent="1" source="Gy4se_GqXcURq6uCOFtO-44" target="dxJv8WcYAOSbDoX47LLL-107">
          <mxGeometry relative="1" as="geometry" />
        </mxCell>
        <mxCell id="Gy4se_GqXcURq6uCOFtO-44" value="ASM_CONVERT" style="shape=process;whiteSpace=wrap;html=1;backgroundOutline=1;strokeWidth=2;" parent="1" vertex="1">
          <mxGeometry x="70" y="477.52" width="160" height="60" as="geometry" />
        </mxCell>
        <mxCell id="Gy4se_GqXcURq6uCOFtO-54" value="" style="edgeStyle=orthogonalEdgeStyle;rounded=0;orthogonalLoop=1;jettySize=auto;html=1;" parent="1" source="Gy4se_GqXcURq6uCOFtO-47" target="Gy4se_GqXcURq6uCOFtO-48" edge="1">
          <mxGeometry relative="1" as="geometry" />
        </mxCell>
        <mxCell id="Gy4se_GqXcURq6uCOFtO-47" value="STORE contents in allocated list" style="whiteSpace=wrap;html=1;strokeWidth=2;" parent="1" vertex="1">
          <mxGeometry x="620" y="650" width="120" height="60" as="geometry" />
        </mxCell>
        <mxCell id="Gy4se_GqXcURq6uCOFtO-55" value="" style="edgeStyle=orthogonalEdgeStyle;rounded=0;orthogonalLoop=1;jettySize=auto;html=1;" parent="1" source="Gy4se_GqXcURq6uCOFtO-48" target="Gy4se_GqXcURq6uCOFtO-49" edge="1">
          <mxGeometry relative="1" as="geometry" />
        </mxCell>
        <mxCell id="Gy4se_GqXcURq6uCOFtO-48" value="SPLIT strings" style="whiteSpace=wrap;html=1;strokeWidth=2;" parent="1" vertex="1">
          <mxGeometry x="620" y="740" width="120" height="60" as="geometry" />
        </mxCell>
        <mxCell id="Gy4se_GqXcURq6uCOFtO-56" value="" style="edgeStyle=orthogonalEdgeStyle;rounded=0;orthogonalLoop=1;jettySize=auto;html=1;" parent="1" source="Gy4se_GqXcURq6uCOFtO-49" target="Gy4se_GqXcURq6uCOFtO-50" edge="1">
          <mxGeometry relative="1" as="geometry" />
        </mxCell>
        <mxCell id="Gy4se_GqXcURq6uCOFtO-49" value="CLEAR comments" style="whiteSpace=wrap;html=1;strokeWidth=2;" parent="1" vertex="1">
          <mxGeometry x="620" y="830" width="120" height="60" as="geometry" />
        </mxCell>
        <mxCell id="Gy4se_GqXcURq6uCOFtO-51" value="" style="edgeStyle=orthogonalEdgeStyle;rounded=0;orthogonalLoop=1;jettySize=auto;html=1;" parent="1" source="Gy4se_GqXcURq6uCOFtO-50" target="Gy4se_GqXcURq6uCOFtO-24" edge="1">
          <mxGeometry relative="1" as="geometry" />
        </mxCell>
        <mxCell id="Gy4se_GqXcURq6uCOFtO-50" value="FREE allocated space for empty nodes&amp;nbsp;" style="whiteSpace=wrap;html=1;strokeWidth=2;" parent="1" vertex="1">
          <mxGeometry x="620" y="920" width="120" height="60" as="geometry" />
        </mxCell>
        <mxCell id="Gy4se_GqXcURq6uCOFtO-58" value="" style="edgeStyle=orthogonalEdgeStyle;rounded=0;orthogonalLoop=1;jettySize=auto;html=1;" parent="1" source="Gy4se_GqXcURq6uCOFtO-59" target="Gy4se_GqXcURq6uCOFtO-62" edge="1">
          <mxGeometry relative="1" as="geometry" />
        </mxCell>
        <mxCell id="Gy4se_GqXcURq6uCOFtO-59" value="ASM_CONVERT" style="strokeWidth=2;html=1;shape=mxgraph.flowchart.start_1;whiteSpace=wrap;" parent="1" vertex="1">
          <mxGeometry x="1060" y="30" width="100" height="60" as="geometry" />
        </mxCell>
        <mxCell id="Gy4se_GqXcURq6uCOFtO-60" value="RETURN" style="strokeWidth=2;html=1;shape=mxgraph.flowchart.start_1;whiteSpace=wrap;" parent="1" vertex="1">
          <mxGeometry x="1060" y="1320" width="100" height="60" as="geometry" />
        </mxCell>
        <mxCell id="Gy4se_GqXcURq6uCOFtO-84" value="" style="edgeStyle=orthogonalEdgeStyle;rounded=0;orthogonalLoop=1;jettySize=auto;html=1;" parent="1" source="Gy4se_GqXcURq6uCOFtO-62" target="Gy4se_GqXcURq6uCOFtO-83" edge="1">
          <mxGeometry relative="1" as="geometry" />
        </mxCell>
        <mxCell id="Gy4se_GqXcURq6uCOFtO-62" value="INITIALIZE instruction list and address" style="whiteSpace=wrap;html=1;strokeWidth=2;" parent="1" vertex="1">
          <mxGeometry x="1030" y="120" width="160" height="60" as="geometry" />
        </mxCell>
        <mxCell id="Gy4se_GqXcURq6uCOFtO-115" value="" style="edgeStyle=orthogonalEdgeStyle;rounded=0;orthogonalLoop=1;jettySize=auto;html=1;" parent="1" source="Gy4se_GqXcURq6uCOFtO-83" target="Gy4se_GqXcURq6uCOFtO-114" edge="1">
          <mxGeometry relative="1" as="geometry" />
        </mxCell>
        <mxCell id="Gy4se_GqXcURq6uCOFtO-83" value="ITERATE on list" style="whiteSpace=wrap;html=1;strokeWidth=2;" parent="1" vertex="1">
          <mxGeometry x="1050" y="210" width="120" height="60" as="geometry" />
        </mxCell>
        <mxCell id="Gy4se_GqXcURq6uCOFtO-92" value="" style="edgeStyle=orthogonalEdgeStyle;rounded=0;orthogonalLoop=1;jettySize=auto;html=1;" parent="1" source="Gy4se_GqXcURq6uCOFtO-86" target="Gy4se_GqXcURq6uCOFtO-90" edge="1">
          <mxGeometry relative="1" as="geometry" />
        </mxCell>
        <mxCell id="Gy4se_GqXcURq6uCOFtO-101" value="" style="edgeStyle=orthogonalEdgeStyle;rounded=0;orthogonalLoop=1;jettySize=auto;html=1;" parent="1" source="Gy4se_GqXcURq6uCOFtO-86" target="Gy4se_GqXcURq6uCOFtO-100" edge="1">
          <mxGeometry relative="1" as="geometry" />
        </mxCell>
        <mxCell id="Gy4se_GqXcURq6uCOFtO-86" value="CHECK IF reserved word&amp;nbsp;" style="rhombus;whiteSpace=wrap;html=1;strokeWidth=2;" parent="1" vertex="1">
          <mxGeometry x="1040" y="550" width="140" height="110" as="geometry" />
        </mxCell>
        <mxCell id="dxJv8WcYAOSbDoX47LLL-44" style="edgeStyle=orthogonalEdgeStyle;rounded=0;orthogonalLoop=1;jettySize=auto;html=1;entryX=0.5;entryY=0;entryDx=0;entryDy=0;" edge="1" parent="1" source="Gy4se_GqXcURq6uCOFtO-87" target="Y1fzjch5jtSy7ssRoxxz-13">
          <mxGeometry relative="1" as="geometry" />
        </mxCell>
        <mxCell id="Gy4se_GqXcURq6uCOFtO-87" value="ASM_INITIALIZE" style="strokeWidth=2;html=1;shape=mxgraph.flowchart.start_1;whiteSpace=wrap;" parent="1" vertex="1">
          <mxGeometry x="2199.86" y="30" width="140" height="60" as="geometry" />
        </mxCell>
        <mxCell id="Gy4se_GqXcURq6uCOFtO-88" value="RETURN" style="strokeWidth=2;html=1;shape=mxgraph.flowchart.start_1;whiteSpace=wrap;" parent="1" vertex="1">
          <mxGeometry x="2720.0000000000005" y="570" width="100" height="60" as="geometry" />
        </mxCell>
        <mxCell id="Gy4se_GqXcURq6uCOFtO-93" value="" style="edgeStyle=orthogonalEdgeStyle;rounded=0;orthogonalLoop=1;jettySize=auto;html=1;" parent="1" source="Gy4se_GqXcURq6uCOFtO-90" target="Gy4se_GqXcURq6uCOFtO-91" edge="1">
          <mxGeometry relative="1" as="geometry" />
        </mxCell>
        <mxCell id="dU5Tu6_biGTcMmYA55rt-11" value="" style="edgeStyle=orthogonalEdgeStyle;rounded=0;orthogonalLoop=1;jettySize=auto;html=1;" parent="1" source="Gy4se_GqXcURq6uCOFtO-90" target="dU5Tu6_biGTcMmYA55rt-1" edge="1">
          <mxGeometry relative="1" as="geometry" />
        </mxCell>
        <mxCell id="Gy4se_GqXcURq6uCOFtO-90" value="CHECK IF instruction" style="rhombus;whiteSpace=wrap;html=1;strokeWidth=2;" parent="1" vertex="1">
          <mxGeometry x="1040" y="770" width="140" height="110" as="geometry" />
        </mxCell>
        <mxCell id="Gy4se_GqXcURq6uCOFtO-95" value="" style="edgeStyle=orthogonalEdgeStyle;rounded=0;orthogonalLoop=1;jettySize=auto;html=1;" parent="1" source="Gy4se_GqXcURq6uCOFtO-91" target="Gy4se_GqXcURq6uCOFtO-94" edge="1">
          <mxGeometry relative="1" as="geometry" />
        </mxCell>
        <mxCell id="dU5Tu6_biGTcMmYA55rt-20" value="" style="edgeStyle=orthogonalEdgeStyle;rounded=0;orthogonalLoop=1;jettySize=auto;html=1;" parent="1" source="Gy4se_GqXcURq6uCOFtO-91" target="dU5Tu6_biGTcMmYA55rt-19" edge="1">
          <mxGeometry relative="1" as="geometry" />
        </mxCell>
        <mxCell id="Gy4se_GqXcURq6uCOFtO-91" value="CHECK IF label" style="rhombus;whiteSpace=wrap;html=1;strokeWidth=2;" parent="1" vertex="1">
          <mxGeometry x="1040" y="1000" width="140" height="110" as="geometry" />
        </mxCell>
        <mxCell id="Gy4se_GqXcURq6uCOFtO-109" value="" style="edgeStyle=orthogonalEdgeStyle;rounded=0;orthogonalLoop=1;jettySize=auto;html=1;entryX=0.5;entryY=0;entryDx=0;entryDy=0;entryPerimeter=0;" parent="1" source="Gy4se_GqXcURq6uCOFtO-94" target="Gy4se_GqXcURq6uCOFtO-60" edge="1">
          <mxGeometry relative="1" as="geometry">
            <mxPoint x="1109.947368421053" y="1272.5" as="targetPoint" />
          </mxGeometry>
        </mxCell>
        <mxCell id="Gy4se_GqXcURq6uCOFtO-94" value="WRITE on error list &quot;uknown instruction&quot;" style="whiteSpace=wrap;html=1;strokeWidth=2;" parent="1" vertex="1">
          <mxGeometry x="1050" y="1180" width="120" height="60" as="geometry" />
        </mxCell>
        <mxCell id="Gy4se_GqXcURq6uCOFtO-97" value="&lt;b&gt;FALSE&lt;/b&gt;" style="text;html=1;strokeColor=none;fillColor=none;align=center;verticalAlign=middle;whiteSpace=wrap;rounded=0;" parent="1" vertex="1">
          <mxGeometry x="1110" y="1120" width="60" height="30" as="geometry" />
        </mxCell>
        <mxCell id="Gy4se_GqXcURq6uCOFtO-98" value="&lt;b&gt;FALSE&lt;/b&gt;" style="text;html=1;strokeColor=none;fillColor=none;align=center;verticalAlign=middle;whiteSpace=wrap;rounded=0;" parent="1" vertex="1">
          <mxGeometry x="1110" y="897.5" width="60" height="30" as="geometry" />
        </mxCell>
        <mxCell id="Gy4se_GqXcURq6uCOFtO-99" value="&lt;b&gt;FALSE&lt;/b&gt;" style="text;html=1;strokeColor=none;fillColor=none;align=center;verticalAlign=middle;whiteSpace=wrap;rounded=0;" parent="1" vertex="1">
          <mxGeometry x="1110" y="677.5" width="60" height="30" as="geometry" />
        </mxCell>
        <mxCell id="Gy4se_GqXcURq6uCOFtO-103" value="" style="edgeStyle=orthogonalEdgeStyle;rounded=0;orthogonalLoop=1;jettySize=auto;html=1;" parent="1" source="Gy4se_GqXcURq6uCOFtO-100" target="Gy4se_GqXcURq6uCOFtO-102" edge="1">
          <mxGeometry relative="1" as="geometry" />
        </mxCell>
        <mxCell id="Gy4se_GqXcURq6uCOFtO-113" value="" style="edgeStyle=orthogonalEdgeStyle;rounded=0;orthogonalLoop=1;jettySize=auto;html=1;exitX=1;exitY=0.5;exitDx=0;exitDy=0;entryX=0;entryY=0.5;entryDx=0;entryDy=0;" parent="1" source="dxJv8WcYAOSbDoX47LLL-34" target="dxJv8WcYAOSbDoX47LLL-36" edge="1">
          <mxGeometry relative="1" as="geometry" />
        </mxCell>
        <mxCell id="dxJv8WcYAOSbDoX47LLL-35" style="edgeStyle=orthogonalEdgeStyle;rounded=0;orthogonalLoop=1;jettySize=auto;html=1;exitX=1;exitY=0.5;exitDx=0;exitDy=0;entryX=0;entryY=0.5;entryDx=0;entryDy=0;" edge="1" parent="1" source="Gy4se_GqXcURq6uCOFtO-100" target="dxJv8WcYAOSbDoX47LLL-34">
          <mxGeometry relative="1" as="geometry" />
        </mxCell>
        <mxCell id="Gy4se_GqXcURq6uCOFtO-100" value="IF reserved word &lt;br&gt;and function &lt;br&gt;operand is valid" style="rhombus;whiteSpace=wrap;html=1;strokeWidth=2;" parent="1" vertex="1">
          <mxGeometry x="1265" y="550" width="140" height="110" as="geometry" />
        </mxCell>
        <mxCell id="dU5Tu6_biGTcMmYA55rt-30" value="" style="edgeStyle=orthogonalEdgeStyle;rounded=0;orthogonalLoop=1;jettySize=auto;html=1;endArrow=classic;endFill=1;" parent="1" source="Gy4se_GqXcURq6uCOFtO-102" target="dU5Tu6_biGTcMmYA55rt-29" edge="1">
          <mxGeometry relative="1" as="geometry" />
        </mxCell>
        <mxCell id="Gy4se_GqXcURq6uCOFtO-102" value="WRITE error type &lt;br&gt;and location in file" style="whiteSpace=wrap;html=1;strokeWidth=2;" parent="1" vertex="1">
          <mxGeometry x="1275" y="700" width="120" height="60" as="geometry" />
        </mxCell>
        <mxCell id="Gy4se_GqXcURq6uCOFtO-110" value="CONVERT to machine code" style="whiteSpace=wrap;html=1;strokeWidth=2;" parent="1" vertex="1">
          <mxGeometry x="1930" y="575" width="120" height="60" as="geometry" />
        </mxCell>
        <mxCell id="Gy4se_GqXcURq6uCOFtO-111" value="&lt;b&gt;FALSE&lt;/b&gt;" style="text;html=1;strokeColor=none;fillColor=none;align=center;verticalAlign=middle;whiteSpace=wrap;rounded=0;" parent="1" vertex="1">
          <mxGeometry x="1335" y="660" width="60" height="30" as="geometry" />
        </mxCell>
        <mxCell id="Gy4se_GqXcURq6uCOFtO-112" value="&lt;b&gt;TRUE&lt;/b&gt;" style="text;html=1;strokeColor=none;fillColor=none;align=center;verticalAlign=middle;whiteSpace=wrap;rounded=0;" parent="1" vertex="1">
          <mxGeometry x="1180" y="575" width="60" height="30" as="geometry" />
        </mxCell>
        <mxCell id="Gy4se_GqXcURq6uCOFtO-116" value="" style="edgeStyle=orthogonalEdgeStyle;rounded=0;orthogonalLoop=1;jettySize=auto;html=1;startArrow=none;" parent="1" source="Gy4se_GqXcURq6uCOFtO-118" target="Gy4se_GqXcURq6uCOFtO-86" edge="1">
          <mxGeometry relative="1" as="geometry" />
        </mxCell>
        <mxCell id="Gy4se_GqXcURq6uCOFtO-121" value="" style="edgeStyle=orthogonalEdgeStyle;rounded=0;orthogonalLoop=1;jettySize=auto;html=1;" parent="1" source="Gy4se_GqXcURq6uCOFtO-114" target="Gy4se_GqXcURq6uCOFtO-118" edge="1">
          <mxGeometry relative="1" as="geometry" />
        </mxCell>
        <mxCell id="Gy4se_GqXcURq6uCOFtO-122" style="edgeStyle=orthogonalEdgeStyle;rounded=0;orthogonalLoop=1;jettySize=auto;html=1;" parent="1" source="Gy4se_GqXcURq6uCOFtO-114" edge="1">
          <mxGeometry relative="1" as="geometry">
            <Array as="points">
              <mxPoint x="950" y="375" />
              <mxPoint x="950" y="1280" />
            </Array>
            <mxPoint x="1110" y="1280" as="targetPoint" />
          </mxGeometry>
        </mxCell>
        <mxCell id="Gy4se_GqXcURq6uCOFtO-114" value="IF next line != NULL" style="rhombus;whiteSpace=wrap;html=1;strokeWidth=2;" parent="1" vertex="1">
          <mxGeometry x="1040" y="320" width="140" height="110" as="geometry" />
        </mxCell>
        <mxCell id="Gy4se_GqXcURq6uCOFtO-118" value="GOTO next line" style="whiteSpace=wrap;html=1;strokeWidth=2;" parent="1" vertex="1">
          <mxGeometry x="1050" y="460" width="120" height="60" as="geometry" />
        </mxCell>
        <mxCell id="dU5Tu6_biGTcMmYA55rt-4" value="" style="edgeStyle=orthogonalEdgeStyle;rounded=0;orthogonalLoop=1;jettySize=auto;html=1;exitX=0;exitY=1;exitDx=0;exitDy=0;" parent="1" source="dU5Tu6_biGTcMmYA55rt-10" edge="1">
          <mxGeometry relative="1" as="geometry">
            <mxPoint x="1305" y="825" as="sourcePoint" />
            <mxPoint x="1890" y="605" as="targetPoint" />
            <Array as="points">
              <mxPoint x="1890" y="825" />
              <mxPoint x="1890" y="605" />
            </Array>
          </mxGeometry>
        </mxCell>
        <mxCell id="dU5Tu6_biGTcMmYA55rt-8" value="" style="edgeStyle=orthogonalEdgeStyle;rounded=0;orthogonalLoop=1;jettySize=auto;html=1;" parent="1" source="dU5Tu6_biGTcMmYA55rt-1" target="dU5Tu6_biGTcMmYA55rt-7" edge="1">
          <mxGeometry relative="1" as="geometry" />
        </mxCell>
        <mxCell id="dU5Tu6_biGTcMmYA55rt-1" value="IF instruction &lt;br&gt;and format&amp;nbsp;&lt;br&gt;is valid" style="rhombus;whiteSpace=wrap;html=1;strokeWidth=2;" parent="1" vertex="1">
          <mxGeometry x="1275" y="777.5" width="110" height="95" as="geometry" />
        </mxCell>
        <mxCell id="dU5Tu6_biGTcMmYA55rt-34" value="" style="edgeStyle=orthogonalEdgeStyle;rounded=0;orthogonalLoop=1;jettySize=auto;html=1;endArrow=classic;endFill=1;" parent="1" source="dU5Tu6_biGTcMmYA55rt-7" target="dU5Tu6_biGTcMmYA55rt-31" edge="1">
          <mxGeometry relative="1" as="geometry" />
        </mxCell>
        <mxCell id="dU5Tu6_biGTcMmYA55rt-7" value="WRITE error type &lt;br&gt;and location in file" style="whiteSpace=wrap;html=1;strokeWidth=2;" parent="1" vertex="1">
          <mxGeometry x="1270" y="910" width="120" height="60" as="geometry" />
        </mxCell>
        <mxCell id="dU5Tu6_biGTcMmYA55rt-9" value="&lt;b&gt;FALSE&lt;/b&gt;" style="text;html=1;strokeColor=none;fillColor=none;align=center;verticalAlign=middle;whiteSpace=wrap;rounded=0;" parent="1" vertex="1">
          <mxGeometry x="1325" y="870" width="60" height="30" as="geometry" />
        </mxCell>
        <mxCell id="dU5Tu6_biGTcMmYA55rt-10" value="&lt;b&gt;TRUE&lt;/b&gt;" style="text;html=1;strokeColor=none;fillColor=none;align=center;verticalAlign=middle;whiteSpace=wrap;rounded=0;" parent="1" vertex="1">
          <mxGeometry x="1385" y="795" width="60" height="30" as="geometry" />
        </mxCell>
        <mxCell id="dU5Tu6_biGTcMmYA55rt-12" value="&lt;b&gt;TRUE&lt;/b&gt;" style="text;html=1;strokeColor=none;fillColor=none;align=center;verticalAlign=middle;whiteSpace=wrap;rounded=0;" parent="1" vertex="1">
          <mxGeometry x="1180" y="795" width="60" height="30" as="geometry" />
        </mxCell>
        <mxCell id="dU5Tu6_biGTcMmYA55rt-22" value="" style="edgeStyle=orthogonalEdgeStyle;rounded=0;orthogonalLoop=1;jettySize=auto;html=1;" parent="1" source="dU5Tu6_biGTcMmYA55rt-19" target="dU5Tu6_biGTcMmYA55rt-21" edge="1">
          <mxGeometry relative="1" as="geometry" />
        </mxCell>
        <mxCell id="dU5Tu6_biGTcMmYA55rt-25" value="" style="edgeStyle=orthogonalEdgeStyle;rounded=0;orthogonalLoop=1;jettySize=auto;html=1;" parent="1" source="dU5Tu6_biGTcMmYA55rt-19" target="dU5Tu6_biGTcMmYA55rt-24" edge="1">
          <mxGeometry relative="1" as="geometry" />
        </mxCell>
        <mxCell id="dU5Tu6_biGTcMmYA55rt-19" value="IF label is&amp;nbsp;&lt;br&gt;legally&amp;nbsp;&lt;br&gt;declared" style="rhombus;whiteSpace=wrap;html=1;strokeWidth=2;" parent="1" vertex="1">
          <mxGeometry x="1270" y="1007.5" width="110" height="95" as="geometry" />
        </mxCell>
        <mxCell id="Y1fzjch5jtSy7ssRoxxz-7" style="edgeStyle=orthogonalEdgeStyle;rounded=0;orthogonalLoop=1;jettySize=auto;html=1;exitX=0.5;exitY=0;exitDx=0;exitDy=0;" parent="1" source="Gy4se_GqXcURq6uCOFtO-110" edge="1">
          <mxGeometry relative="1" as="geometry">
            <mxPoint x="1110" y="290" as="targetPoint" />
            <Array as="points">
              <mxPoint x="1990" y="290" />
            </Array>
          </mxGeometry>
        </mxCell>
        <mxCell id="dxJv8WcYAOSbDoX47LLL-28" style="edgeStyle=orthogonalEdgeStyle;rounded=0;orthogonalLoop=1;jettySize=auto;html=1;exitX=1;exitY=0.5;exitDx=0;exitDy=0;entryX=0;entryY=0.5;entryDx=0;entryDy=0;" edge="1" parent="1" source="dU5Tu6_biGTcMmYA55rt-21" target="dxJv8WcYAOSbDoX47LLL-26">
          <mxGeometry relative="1" as="geometry" />
        </mxCell>
        <mxCell id="dU5Tu6_biGTcMmYA55rt-21" value="ADD to hash table and assign an offset or location to reference it" style="whiteSpace=wrap;html=1;strokeWidth=2;" parent="1" vertex="1">
          <mxGeometry x="1470" y="1025" width="120" height="60" as="geometry" />
        </mxCell>
        <mxCell id="dU5Tu6_biGTcMmYA55rt-33" value="" style="edgeStyle=orthogonalEdgeStyle;rounded=0;orthogonalLoop=1;jettySize=auto;html=1;endArrow=classic;endFill=1;" parent="1" source="dU5Tu6_biGTcMmYA55rt-24" target="dU5Tu6_biGTcMmYA55rt-32" edge="1">
          <mxGeometry relative="1" as="geometry" />
        </mxCell>
        <mxCell id="dU5Tu6_biGTcMmYA55rt-24" value="WRITE error type &lt;br&gt;and location in file" style="whiteSpace=wrap;html=1;strokeWidth=2;" parent="1" vertex="1">
          <mxGeometry x="1265" y="1145" width="120" height="60" as="geometry" />
        </mxCell>
        <mxCell id="dU5Tu6_biGTcMmYA55rt-29" value="E" style="ellipse;whiteSpace=wrap;html=1;aspect=fixed;" parent="1" vertex="1">
          <mxGeometry x="1445" y="717.5" width="25" height="25" as="geometry" />
        </mxCell>
        <mxCell id="dU5Tu6_biGTcMmYA55rt-31" value="E" style="ellipse;whiteSpace=wrap;html=1;aspect=fixed;" parent="1" vertex="1">
          <mxGeometry x="1440" y="927.5" width="25" height="25" as="geometry" />
        </mxCell>
        <mxCell id="dU5Tu6_biGTcMmYA55rt-32" value="E" style="ellipse;whiteSpace=wrap;html=1;aspect=fixed;" parent="1" vertex="1">
          <mxGeometry x="1440" y="1162.5" width="25" height="25" as="geometry" />
        </mxCell>
        <mxCell id="dU5Tu6_biGTcMmYA55rt-36" value="" style="edgeStyle=orthogonalEdgeStyle;rounded=0;orthogonalLoop=1;jettySize=auto;html=1;endArrow=classic;endFill=1;" parent="1" source="dU5Tu6_biGTcMmYA55rt-35" edge="1">
          <mxGeometry relative="1" as="geometry">
            <mxPoint x="1110" y="1262.5" as="targetPoint" />
          </mxGeometry>
        </mxCell>
        <mxCell id="dU5Tu6_biGTcMmYA55rt-35" value="E" style="ellipse;whiteSpace=wrap;html=1;aspect=fixed;" parent="1" vertex="1">
          <mxGeometry x="1175" y="1250" width="25" height="25" as="geometry" />
        </mxCell>
        <mxCell id="dU5Tu6_biGTcMmYA55rt-37" value="&lt;b&gt;TRUE&lt;/b&gt;" style="text;html=1;strokeColor=none;fillColor=none;align=center;verticalAlign=middle;whiteSpace=wrap;rounded=0;" parent="1" vertex="1">
          <mxGeometry x="1410" y="575" width="60" height="30" as="geometry" />
        </mxCell>
        <mxCell id="dU5Tu6_biGTcMmYA55rt-38" value="&lt;b&gt;TRUE&lt;/b&gt;" style="text;html=1;strokeColor=none;fillColor=none;align=center;verticalAlign=middle;whiteSpace=wrap;rounded=0;" parent="1" vertex="1">
          <mxGeometry x="1380" y="1025" width="60" height="30" as="geometry" />
        </mxCell>
        <mxCell id="dU5Tu6_biGTcMmYA55rt-39" value="&lt;b&gt;TRUE&lt;/b&gt;" style="text;html=1;strokeColor=none;fillColor=none;align=center;verticalAlign=middle;whiteSpace=wrap;rounded=0;" parent="1" vertex="1">
          <mxGeometry x="1180" y="1025" width="60" height="30" as="geometry" />
        </mxCell>
        <mxCell id="dU5Tu6_biGTcMmYA55rt-40" value="&lt;b&gt;FALSE&lt;/b&gt;" style="text;html=1;strokeColor=none;fillColor=none;align=center;verticalAlign=middle;whiteSpace=wrap;rounded=0;" parent="1" vertex="1">
          <mxGeometry x="1325" y="1102.5" width="60" height="30" as="geometry" />
        </mxCell>
        <mxCell id="Y1fzjch5jtSy7ssRoxxz-1" value="&lt;b&gt;TRUE&lt;/b&gt;" style="text;html=1;align=center;verticalAlign=middle;resizable=0;points=[];autosize=1;strokeColor=none;fillColor=none;" parent="1" vertex="1">
          <mxGeometry x="200" y="350.02" width="60" height="30" as="geometry" />
        </mxCell>
        <mxCell id="Y1fzjch5jtSy7ssRoxxz-3" value="&lt;b&gt;FALSE&lt;/b&gt;" style="text;html=1;align=center;verticalAlign=middle;resizable=0;points=[];autosize=1;strokeColor=none;fillColor=none;" parent="1" vertex="1">
          <mxGeometry x="150" y="430" width="60" height="30" as="geometry" />
        </mxCell>
        <mxCell id="Y1fzjch5jtSy7ssRoxxz-4" value="&lt;b&gt;TRUE&lt;/b&gt;" style="text;html=1;align=center;verticalAlign=middle;resizable=0;points=[];autosize=1;strokeColor=none;fillColor=none;" parent="1" vertex="1">
          <mxGeometry x="670" y="270" width="60" height="30" as="geometry" />
        </mxCell>
        <mxCell id="Y1fzjch5jtSy7ssRoxxz-5" value="&lt;b&gt;FALSE&lt;/b&gt;" style="text;html=1;align=center;verticalAlign=middle;resizable=0;points=[];autosize=1;strokeColor=none;fillColor=none;" parent="1" vertex="1">
          <mxGeometry x="580" y="200" width="60" height="30" as="geometry" />
        </mxCell>
        <mxCell id="Y1fzjch5jtSy7ssRoxxz-6" value="&lt;b&gt;TRUE&lt;/b&gt;" style="text;html=1;align=center;verticalAlign=middle;resizable=0;points=[];autosize=1;strokeColor=none;fillColor=none;" parent="1" vertex="1">
          <mxGeometry x="670" y="500" width="60" height="30" as="geometry" />
        </mxCell>
        <mxCell id="Y1fzjch5jtSy7ssRoxxz-12" value="&lt;b&gt;FALSE&lt;/b&gt;" style="text;html=1;align=center;verticalAlign=middle;resizable=0;points=[];autosize=1;strokeColor=none;fillColor=none;" parent="1" vertex="1">
          <mxGeometry x="580" y="430" width="60" height="30" as="geometry" />
        </mxCell>
        <mxCell id="dxJv8WcYAOSbDoX47LLL-45" style="edgeStyle=orthogonalEdgeStyle;rounded=0;orthogonalLoop=1;jettySize=auto;html=1;exitX=0.5;exitY=1;exitDx=0;exitDy=0;entryX=0.5;entryY=0;entryDx=0;entryDy=0;" edge="1" parent="1" source="Y1fzjch5jtSy7ssRoxxz-13" target="dxJv8WcYAOSbDoX47LLL-50">
          <mxGeometry relative="1" as="geometry" />
        </mxCell>
        <mxCell id="Y1fzjch5jtSy7ssRoxxz-13" value="LOAD stored machine code instruction lists and addresses from ASM" style="whiteSpace=wrap;html=1;strokeWidth=2;" parent="1" vertex="1">
          <mxGeometry x="2169.9300000000003" y="125.01999999999998" width="200.14" height="60" as="geometry" />
        </mxCell>
        <mxCell id="dxJv8WcYAOSbDoX47LLL-48" style="edgeStyle=orthogonalEdgeStyle;rounded=0;orthogonalLoop=1;jettySize=auto;html=1;exitX=0.5;exitY=1;exitDx=0;exitDy=0;entryX=0.5;entryY=0;entryDx=0;entryDy=0;" edge="1" parent="1" source="Y1fzjch5jtSy7ssRoxxz-15" target="dxJv8WcYAOSbDoX47LLL-160">
          <mxGeometry relative="1" as="geometry" />
        </mxCell>
        <mxCell id="dxJv8WcYAOSbDoX47LLL-68" style="edgeStyle=orthogonalEdgeStyle;rounded=0;orthogonalLoop=1;jettySize=auto;html=1;exitX=1;exitY=0.5;exitDx=0;exitDy=0;" edge="1" parent="1" source="Y1fzjch5jtSy7ssRoxxz-15" target="dxJv8WcYAOSbDoX47LLL-66">
          <mxGeometry relative="1" as="geometry" />
        </mxCell>
        <mxCell id="Y1fzjch5jtSy7ssRoxxz-15" value="IF next item of stored instructions != NULL" style="rhombus;whiteSpace=wrap;html=1;strokeWidth=2;" parent="1" vertex="1">
          <mxGeometry x="2199.86" y="422.52" width="140" height="110" as="geometry" />
        </mxCell>
        <mxCell id="dxJv8WcYAOSbDoX47LLL-3" value="" style="edgeStyle=orthogonalEdgeStyle;rounded=0;orthogonalLoop=1;jettySize=auto;html=1;entryX=0.5;entryY=0;entryDx=0;entryDy=0;" edge="1" parent="1" source="dxJv8WcYAOSbDoX47LLL-4" target="dxJv8WcYAOSbDoX47LLL-100">
          <mxGeometry relative="1" as="geometry">
            <mxPoint x="2770.0490909090913" y="120" as="targetPoint" />
          </mxGeometry>
        </mxCell>
        <mxCell id="dxJv8WcYAOSbDoX47LLL-4" value="ASM_EXECUTE" style="strokeWidth=2;html=1;shape=mxgraph.flowchart.start_1;whiteSpace=wrap;" vertex="1" parent="1">
          <mxGeometry x="2720" y="30" width="100" height="60" as="geometry" />
        </mxCell>
        <mxCell id="dxJv8WcYAOSbDoX47LLL-39" style="edgeStyle=orthogonalEdgeStyle;rounded=0;orthogonalLoop=1;jettySize=auto;html=1;exitX=1;exitY=0.5;exitDx=0;exitDy=0;entryX=0;entryY=0.5;entryDx=0;entryDy=0;" edge="1" parent="1" source="dxJv8WcYAOSbDoX47LLL-26" target="dxJv8WcYAOSbDoX47LLL-38">
          <mxGeometry relative="1" as="geometry" />
        </mxCell>
        <mxCell id="dxJv8WcYAOSbDoX47LLL-26" value="PLACE indicator to indicate label at current context" style="whiteSpace=wrap;html=1;strokeWidth=2;" vertex="1" parent="1">
          <mxGeometry x="1650" y="1025" width="120" height="60" as="geometry" />
        </mxCell>
        <mxCell id="dxJv8WcYAOSbDoX47LLL-34" value="PLACE indicator to indicate reserved word at current context" style="whiteSpace=wrap;html=1;strokeWidth=2;" vertex="1" parent="1">
          <mxGeometry x="1530" y="575" width="120" height="60" as="geometry" />
        </mxCell>
        <mxCell id="dxJv8WcYAOSbDoX47LLL-37" style="edgeStyle=orthogonalEdgeStyle;rounded=0;orthogonalLoop=1;jettySize=auto;html=1;exitX=1;exitY=0.5;exitDx=0;exitDy=0;entryX=0;entryY=0.5;entryDx=0;entryDy=0;" edge="1" parent="1" source="dxJv8WcYAOSbDoX47LLL-36" target="Gy4se_GqXcURq6uCOFtO-110">
          <mxGeometry relative="1" as="geometry" />
        </mxCell>
        <mxCell id="dxJv8WcYAOSbDoX47LLL-36" value="GET operand" style="whiteSpace=wrap;html=1;strokeWidth=2;" vertex="1" parent="1">
          <mxGeometry x="1720" y="575" width="120" height="60" as="geometry" />
        </mxCell>
        <mxCell id="dxJv8WcYAOSbDoX47LLL-43" style="edgeStyle=orthogonalEdgeStyle;rounded=0;orthogonalLoop=1;jettySize=auto;html=1;exitX=0.5;exitY=0;exitDx=0;exitDy=0;" edge="1" parent="1">
          <mxGeometry relative="1" as="geometry">
            <mxPoint x="1880" y="1032" as="sourcePoint" />
            <mxPoint x="1880" y="827" as="targetPoint" />
          </mxGeometry>
        </mxCell>
        <mxCell id="dxJv8WcYAOSbDoX47LLL-38" value="GET instruction with operand" style="whiteSpace=wrap;html=1;strokeWidth=2;" vertex="1" parent="1">
          <mxGeometry x="1820" y="1025" width="120" height="60" as="geometry" />
        </mxCell>
        <mxCell id="dxJv8WcYAOSbDoX47LLL-67" style="edgeStyle=orthogonalEdgeStyle;rounded=0;orthogonalLoop=1;jettySize=auto;html=1;exitX=0.5;exitY=1;exitDx=0;exitDy=0;entryX=0.5;entryY=0;entryDx=0;entryDy=0;" edge="1" parent="1" source="dxJv8WcYAOSbDoX47LLL-46" target="dxJv8WcYAOSbDoX47LLL-55">
          <mxGeometry relative="1" as="geometry" />
        </mxCell>
        <mxCell id="dxJv8WcYAOSbDoX47LLL-74" style="edgeStyle=orthogonalEdgeStyle;rounded=0;orthogonalLoop=1;jettySize=auto;html=1;exitX=1;exitY=0.5;exitDx=0;exitDy=0;" edge="1" parent="1" source="dxJv8WcYAOSbDoX47LLL-46">
          <mxGeometry relative="1" as="geometry">
            <mxPoint x="2270" y="897.02" as="targetPoint" />
            <Array as="points">
              <mxPoint x="2380" y="717.02" />
              <mxPoint x="2380" y="897.02" />
            </Array>
          </mxGeometry>
        </mxCell>
        <mxCell id="dxJv8WcYAOSbDoX47LLL-46" value="IF ORG?" style="rhombus;whiteSpace=wrap;html=1;" vertex="1" parent="1">
          <mxGeometry x="2229.86" y="677.02" width="80" height="80" as="geometry" />
        </mxCell>
        <mxCell id="dxJv8WcYAOSbDoX47LLL-51" style="edgeStyle=orthogonalEdgeStyle;rounded=0;orthogonalLoop=1;jettySize=auto;html=1;exitX=0.5;exitY=1;exitDx=0;exitDy=0;entryX=0.5;entryY=0;entryDx=0;entryDy=0;" edge="1" parent="1" source="dxJv8WcYAOSbDoX47LLL-50" target="dxJv8WcYAOSbDoX47LLL-64">
          <mxGeometry relative="1" as="geometry" />
        </mxCell>
        <mxCell id="dxJv8WcYAOSbDoX47LLL-50" value="INITIALIZE new list to&amp;nbsp;record address and&amp;nbsp;bus data when initializing/ writing instructions to memory&amp;nbsp;" style="whiteSpace=wrap;html=1;strokeWidth=2;" vertex="1" parent="1">
          <mxGeometry x="2169.9300000000003" y="222.51999999999998" width="200.14" height="60" as="geometry" />
        </mxCell>
        <mxCell id="dxJv8WcYAOSbDoX47LLL-72" style="edgeStyle=orthogonalEdgeStyle;rounded=0;orthogonalLoop=1;jettySize=auto;html=1;exitX=0.5;exitY=1;exitDx=0;exitDy=0;entryX=0.5;entryY=0;entryDx=0;entryDy=0;" edge="1" parent="1" source="dxJv8WcYAOSbDoX47LLL-55" target="dxJv8WcYAOSbDoX47LLL-90">
          <mxGeometry relative="1" as="geometry" />
        </mxCell>
        <mxCell id="dxJv8WcYAOSbDoX47LLL-55" value="SET operand as starting program memory address" style="whiteSpace=wrap;html=1;strokeWidth=2;" vertex="1" parent="1">
          <mxGeometry x="2210" y="809.52" width="120" height="60" as="geometry" />
        </mxCell>
        <mxCell id="dxJv8WcYAOSbDoX47LLL-77" style="edgeStyle=orthogonalEdgeStyle;rounded=0;orthogonalLoop=1;jettySize=auto;html=1;exitX=0.5;exitY=1;exitDx=0;exitDy=0;entryX=0.5;entryY=0;entryDx=0;entryDy=0;" edge="1" parent="1" source="dxJv8WcYAOSbDoX47LLL-56" target="dxJv8WcYAOSbDoX47LLL-58">
          <mxGeometry relative="1" as="geometry">
            <mxPoint x="2270.28" y="1427" as="targetPoint" />
          </mxGeometry>
        </mxCell>
        <mxCell id="dxJv8WcYAOSbDoX47LLL-56" value="RECORD program memory address to memory initialization list" style="whiteSpace=wrap;html=1;strokeWidth=2;" vertex="1" parent="1">
          <mxGeometry x="2210.1400000000003" y="1347" width="120" height="60" as="geometry" />
        </mxCell>
        <mxCell id="dxJv8WcYAOSbDoX47LLL-83" style="edgeStyle=orthogonalEdgeStyle;rounded=0;orthogonalLoop=1;jettySize=auto;html=1;exitX=0.5;exitY=1;exitDx=0;exitDy=0;entryX=0.5;entryY=0;entryDx=0;entryDy=0;" edge="1" parent="1" source="dxJv8WcYAOSbDoX47LLL-57" target="dxJv8WcYAOSbDoX47LLL-80">
          <mxGeometry relative="1" as="geometry" />
        </mxCell>
        <mxCell id="dxJv8WcYAOSbDoX47LLL-57" value="RECORD byte as bus data to memory initialization list" style="whiteSpace=wrap;html=1;strokeWidth=2;" vertex="1" parent="1">
          <mxGeometry x="2210.1400000000003" y="1517" width="120" height="60" as="geometry" />
        </mxCell>
        <mxCell id="dxJv8WcYAOSbDoX47LLL-78" style="edgeStyle=orthogonalEdgeStyle;rounded=0;orthogonalLoop=1;jettySize=auto;html=1;exitX=0.5;exitY=1;exitDx=0;exitDy=0;entryX=0.5;entryY=0;entryDx=0;entryDy=0;" edge="1" parent="1" source="dxJv8WcYAOSbDoX47LLL-58" target="dxJv8WcYAOSbDoX47LLL-57">
          <mxGeometry relative="1" as="geometry" />
        </mxCell>
        <mxCell id="dxJv8WcYAOSbDoX47LLL-58" value="GET instruction upper byte" style="whiteSpace=wrap;html=1;strokeWidth=2;" vertex="1" parent="1">
          <mxGeometry x="2210.1400000000003" y="1432" width="120" height="60" as="geometry" />
        </mxCell>
        <mxCell id="dxJv8WcYAOSbDoX47LLL-85" style="edgeStyle=orthogonalEdgeStyle;rounded=0;orthogonalLoop=1;jettySize=auto;html=1;exitX=0.5;exitY=1;exitDx=0;exitDy=0;entryX=0.5;entryY=0;entryDx=0;entryDy=0;" edge="1" parent="1" source="dxJv8WcYAOSbDoX47LLL-59" target="dxJv8WcYAOSbDoX47LLL-60">
          <mxGeometry relative="1" as="geometry" />
        </mxCell>
        <mxCell id="dxJv8WcYAOSbDoX47LLL-59" value="INCREMENT &lt;br&gt;program memory address" style="whiteSpace=wrap;html=1;strokeWidth=2;" vertex="1" parent="1">
          <mxGeometry x="2210.1400000000003" y="1697" width="120" height="60" as="geometry" />
        </mxCell>
        <mxCell id="dxJv8WcYAOSbDoX47LLL-86" style="edgeStyle=orthogonalEdgeStyle;rounded=0;orthogonalLoop=1;jettySize=auto;html=1;exitX=0.5;exitY=1;exitDx=0;exitDy=0;entryX=0.5;entryY=0;entryDx=0;entryDy=0;" edge="1" parent="1" source="dxJv8WcYAOSbDoX47LLL-60" target="dxJv8WcYAOSbDoX47LLL-61">
          <mxGeometry relative="1" as="geometry" />
        </mxCell>
        <mxCell id="dxJv8WcYAOSbDoX47LLL-60" value="RECORD program memory address" style="whiteSpace=wrap;html=1;strokeWidth=2;" vertex="1" parent="1">
          <mxGeometry x="2210.1400000000003" y="1787" width="120" height="60" as="geometry" />
        </mxCell>
        <mxCell id="dxJv8WcYAOSbDoX47LLL-87" style="edgeStyle=orthogonalEdgeStyle;rounded=0;orthogonalLoop=1;jettySize=auto;html=1;exitX=0.5;exitY=1;exitDx=0;exitDy=0;entryX=0.5;entryY=0;entryDx=0;entryDy=0;" edge="1" parent="1" source="dxJv8WcYAOSbDoX47LLL-61" target="dxJv8WcYAOSbDoX47LLL-62">
          <mxGeometry relative="1" as="geometry" />
        </mxCell>
        <mxCell id="dxJv8WcYAOSbDoX47LLL-61" value="GET instruction lower byte" style="whiteSpace=wrap;html=1;strokeWidth=2;" vertex="1" parent="1">
          <mxGeometry x="2210.0000000000005" y="1877" width="120" height="60" as="geometry" />
        </mxCell>
        <mxCell id="dxJv8WcYAOSbDoX47LLL-89" style="edgeStyle=orthogonalEdgeStyle;rounded=0;orthogonalLoop=1;jettySize=auto;html=1;exitX=0;exitY=0.5;exitDx=0;exitDy=0;" edge="1" parent="1" source="dxJv8WcYAOSbDoX47LLL-62">
          <mxGeometry relative="1" as="geometry">
            <mxPoint x="2270" y="400.02" as="targetPoint" />
            <Array as="points">
              <mxPoint x="2120" y="1997" />
              <mxPoint x="2120" y="400" />
            </Array>
          </mxGeometry>
        </mxCell>
        <mxCell id="dxJv8WcYAOSbDoX47LLL-62" value="RECORD byte as bus data to memory initialization list" style="whiteSpace=wrap;html=1;strokeWidth=2;" vertex="1" parent="1">
          <mxGeometry x="2210.1400000000003" y="1967" width="120" height="60" as="geometry" />
        </mxCell>
        <mxCell id="dxJv8WcYAOSbDoX47LLL-65" style="edgeStyle=orthogonalEdgeStyle;rounded=0;orthogonalLoop=1;jettySize=auto;html=1;exitX=0.5;exitY=1;exitDx=0;exitDy=0;" edge="1" parent="1" source="dxJv8WcYAOSbDoX47LLL-64" target="Y1fzjch5jtSy7ssRoxxz-15">
          <mxGeometry relative="1" as="geometry" />
        </mxCell>
        <mxCell id="dxJv8WcYAOSbDoX47LLL-64" value="INITIALIZE program &lt;br&gt;memory address as 0x000" style="whiteSpace=wrap;html=1;strokeWidth=2;" vertex="1" parent="1">
          <mxGeometry x="2169.9300000000003" y="320.02" width="200.14" height="60" as="geometry" />
        </mxCell>
        <mxCell id="dxJv8WcYAOSbDoX47LLL-66" value="RETURN" style="strokeWidth=2;html=1;shape=mxgraph.flowchart.start_1;whiteSpace=wrap;" vertex="1" parent="1">
          <mxGeometry x="2440" y="447.52" width="100" height="60" as="geometry" />
        </mxCell>
        <mxCell id="dxJv8WcYAOSbDoX47LLL-69" value="&lt;b&gt;TRUE&lt;/b&gt;" style="text;html=1;strokeColor=none;fillColor=none;align=center;verticalAlign=middle;whiteSpace=wrap;rounded=0;" vertex="1" parent="1">
          <mxGeometry x="2269.86" y="532.52" width="60" height="30" as="geometry" />
        </mxCell>
        <mxCell id="dxJv8WcYAOSbDoX47LLL-70" value="&lt;b&gt;FALSE&lt;/b&gt;" style="text;html=1;strokeColor=none;fillColor=none;align=center;verticalAlign=middle;whiteSpace=wrap;rounded=0;" vertex="1" parent="1">
          <mxGeometry x="2339.86" y="447.52" width="60" height="30" as="geometry" />
        </mxCell>
        <mxCell id="dxJv8WcYAOSbDoX47LLL-71" value="&lt;b&gt;TRUE&lt;/b&gt;" style="text;html=1;strokeColor=none;fillColor=none;align=center;verticalAlign=middle;whiteSpace=wrap;rounded=0;" vertex="1" parent="1">
          <mxGeometry x="2270" y="757.02" width="60" height="30" as="geometry" />
        </mxCell>
        <mxCell id="dxJv8WcYAOSbDoX47LLL-75" value="&lt;b&gt;FALSE&lt;/b&gt;" style="text;html=1;strokeColor=none;fillColor=none;align=center;verticalAlign=middle;whiteSpace=wrap;rounded=0;" vertex="1" parent="1">
          <mxGeometry x="2309.86" y="687.02" width="60" height="30" as="geometry" />
        </mxCell>
        <mxCell id="dxJv8WcYAOSbDoX47LLL-84" style="edgeStyle=orthogonalEdgeStyle;rounded=0;orthogonalLoop=1;jettySize=auto;html=1;exitX=0.5;exitY=1;exitDx=0;exitDy=0;entryX=0.5;entryY=0;entryDx=0;entryDy=0;" edge="1" parent="1" source="dxJv8WcYAOSbDoX47LLL-80" target="dxJv8WcYAOSbDoX47LLL-59">
          <mxGeometry relative="1" as="geometry" />
        </mxCell>
        <mxCell id="dxJv8WcYAOSbDoX47LLL-80" value="CREATE new list item to memory initialization list" style="whiteSpace=wrap;html=1;strokeWidth=2;" vertex="1" parent="1">
          <mxGeometry x="2210.28" y="1607" width="120" height="60" as="geometry" />
        </mxCell>
        <mxCell id="dxJv8WcYAOSbDoX47LLL-82" style="edgeStyle=orthogonalEdgeStyle;rounded=0;orthogonalLoop=1;jettySize=auto;html=1;exitX=0.5;exitY=1;exitDx=0;exitDy=0;entryX=0.5;entryY=0;entryDx=0;entryDy=0;" edge="1" parent="1" source="dxJv8WcYAOSbDoX47LLL-81" target="dxJv8WcYAOSbDoX47LLL-56">
          <mxGeometry relative="1" as="geometry" />
        </mxCell>
        <mxCell id="dxJv8WcYAOSbDoX47LLL-81" value="CREATE new list entry to memory initialization list" style="whiteSpace=wrap;html=1;strokeWidth=2;" vertex="1" parent="1">
          <mxGeometry x="2210.14" y="1252" width="120" height="60" as="geometry" />
        </mxCell>
        <mxCell id="dxJv8WcYAOSbDoX47LLL-93" style="edgeStyle=orthogonalEdgeStyle;rounded=0;orthogonalLoop=1;jettySize=auto;html=1;exitX=0.5;exitY=1;exitDx=0;exitDy=0;entryX=0.5;entryY=0;entryDx=0;entryDy=0;" edge="1" parent="1" source="dxJv8WcYAOSbDoX47LLL-90" target="dxJv8WcYAOSbDoX47LLL-91">
          <mxGeometry relative="1" as="geometry" />
        </mxCell>
        <mxCell id="dxJv8WcYAOSbDoX47LLL-98" style="edgeStyle=orthogonalEdgeStyle;rounded=0;orthogonalLoop=1;jettySize=auto;html=1;exitX=1;exitY=0.5;exitDx=0;exitDy=0;" edge="1" parent="1" source="dxJv8WcYAOSbDoX47LLL-90">
          <mxGeometry relative="1" as="geometry">
            <mxPoint x="2270" y="1232" as="targetPoint" />
            <Array as="points">
              <mxPoint x="2380" y="962" />
              <mxPoint x="2380" y="1232" />
            </Array>
          </mxGeometry>
        </mxCell>
        <mxCell id="dxJv8WcYAOSbDoX47LLL-90" value="IF label?" style="rhombus;whiteSpace=wrap;html=1;" vertex="1" parent="1">
          <mxGeometry x="2229.86" y="922" width="80" height="80" as="geometry" />
        </mxCell>
        <mxCell id="dxJv8WcYAOSbDoX47LLL-95" style="edgeStyle=orthogonalEdgeStyle;rounded=0;orthogonalLoop=1;jettySize=auto;html=1;exitX=0.5;exitY=1;exitDx=0;exitDy=0;entryX=0.5;entryY=0;entryDx=0;entryDy=0;" edge="1" parent="1" source="dxJv8WcYAOSbDoX47LLL-91" target="dxJv8WcYAOSbDoX47LLL-92">
          <mxGeometry relative="1" as="geometry" />
        </mxCell>
        <mxCell id="dxJv8WcYAOSbDoX47LLL-91" value="GET address value from hash table" style="whiteSpace=wrap;html=1;strokeWidth=2;" vertex="1" parent="1">
          <mxGeometry x="2209.86" y="1052" width="120" height="60" as="geometry" />
        </mxCell>
        <mxCell id="dxJv8WcYAOSbDoX47LLL-96" style="edgeStyle=orthogonalEdgeStyle;rounded=0;orthogonalLoop=1;jettySize=auto;html=1;exitX=0.5;exitY=1;exitDx=0;exitDy=0;entryX=0.5;entryY=0;entryDx=0;entryDy=0;" edge="1" parent="1" source="dxJv8WcYAOSbDoX47LLL-92" target="dxJv8WcYAOSbDoX47LLL-81">
          <mxGeometry relative="1" as="geometry" />
        </mxCell>
        <mxCell id="dxJv8WcYAOSbDoX47LLL-92" value="APPEND&amp;nbsp;10010 (BGRT) to 11-bit address from hash table" style="whiteSpace=wrap;html=1;strokeWidth=2;" vertex="1" parent="1">
          <mxGeometry x="2210.28" y="1144.5" width="120" height="60" as="geometry" />
        </mxCell>
        <mxCell id="dxJv8WcYAOSbDoX47LLL-94" value="&lt;b&gt;TRUE&lt;/b&gt;" style="text;html=1;strokeColor=none;fillColor=none;align=center;verticalAlign=middle;whiteSpace=wrap;rounded=0;" vertex="1" parent="1">
          <mxGeometry x="2269.86" y="1002" width="60" height="30" as="geometry" />
        </mxCell>
        <mxCell id="dxJv8WcYAOSbDoX47LLL-99" value="&lt;b&gt;FALSE&lt;/b&gt;" style="text;html=1;strokeColor=none;fillColor=none;align=center;verticalAlign=middle;whiteSpace=wrap;rounded=0;" vertex="1" parent="1">
          <mxGeometry x="2309.86" y="932" width="60" height="30" as="geometry" />
        </mxCell>
        <mxCell id="dxJv8WcYAOSbDoX47LLL-116" style="edgeStyle=orthogonalEdgeStyle;rounded=0;orthogonalLoop=1;jettySize=auto;html=1;exitX=0.5;exitY=1;exitDx=0;exitDy=0;entryX=0.5;entryY=0;entryDx=0;entryDy=0;" edge="1" parent="1" source="dxJv8WcYAOSbDoX47LLL-100" target="dxJv8WcYAOSbDoX47LLL-123">
          <mxGeometry relative="1" as="geometry">
            <mxPoint x="2770" y="220" as="targetPoint" />
          </mxGeometry>
        </mxCell>
        <mxCell id="dxJv8WcYAOSbDoX47LLL-100" value="LOAD memory initialization list" style="whiteSpace=wrap;html=1;strokeWidth=2;" vertex="1" parent="1">
          <mxGeometry x="2710.0000000000005" y="120" width="120" height="60" as="geometry" />
        </mxCell>
        <mxCell id="dxJv8WcYAOSbDoX47LLL-102" value="" style="edgeStyle=orthogonalEdgeStyle;rounded=0;orthogonalLoop=1;jettySize=auto;html=1;entryX=0.5;entryY=0;entryDx=0;entryDy=0;exitX=0.5;exitY=1;exitDx=0;exitDy=0;" edge="1" parent="1" source="Gy4se_GqXcURq6uCOFtO-11" target="dxJv8WcYAOSbDoX47LLL-101">
          <mxGeometry relative="1" as="geometry">
            <mxPoint x="150" y="770" as="sourcePoint" />
            <mxPoint x="150" y="945" as="targetPoint" />
          </mxGeometry>
        </mxCell>
        <mxCell id="dxJv8WcYAOSbDoX47LLL-122" style="edgeStyle=orthogonalEdgeStyle;rounded=0;orthogonalLoop=1;jettySize=auto;html=1;exitX=0.5;exitY=1;exitDx=0;exitDy=0;entryX=0.5;entryY=0;entryDx=0;entryDy=0;" edge="1" parent="1" source="dxJv8WcYAOSbDoX47LLL-101" target="dxJv8WcYAOSbDoX47LLL-119">
          <mxGeometry relative="1" as="geometry" />
        </mxCell>
        <mxCell id="dxJv8WcYAOSbDoX47LLL-101" value="ASM_EXECUTE" style="shape=process;whiteSpace=wrap;html=1;backgroundOutline=1;strokeWidth=2;" vertex="1" parent="1">
          <mxGeometry x="70" y="815" width="160" height="60" as="geometry" />
        </mxCell>
        <mxCell id="dxJv8WcYAOSbDoX47LLL-103" value="ASM_MAKETXT" style="shape=process;whiteSpace=wrap;html=1;backgroundOutline=1;strokeWidth=2;" vertex="1" parent="1">
          <mxGeometry x="70" y="1040" width="160" height="60" as="geometry" />
        </mxCell>
        <mxCell id="dxJv8WcYAOSbDoX47LLL-135" style="edgeStyle=orthogonalEdgeStyle;rounded=0;orthogonalLoop=1;jettySize=auto;html=1;exitX=0.5;exitY=1;exitDx=0;exitDy=0;entryX=0.5;entryY=0;entryDx=0;entryDy=0;" edge="1" parent="1" source="dxJv8WcYAOSbDoX47LLL-106" target="dxJv8WcYAOSbDoX47LLL-132">
          <mxGeometry relative="1" as="geometry" />
        </mxCell>
        <mxCell id="dxJv8WcYAOSbDoX47LLL-136" style="edgeStyle=orthogonalEdgeStyle;rounded=0;orthogonalLoop=1;jettySize=auto;html=1;exitX=1;exitY=0.5;exitDx=0;exitDy=0;entryX=0;entryY=0.5;entryDx=0;entryDy=0;" edge="1" parent="1" source="dxJv8WcYAOSbDoX47LLL-106" target="dxJv8WcYAOSbDoX47LLL-129">
          <mxGeometry relative="1" as="geometry" />
        </mxCell>
        <mxCell id="dxJv8WcYAOSbDoX47LLL-106" value="IF return value is 1" style="rhombus;whiteSpace=wrap;html=1;strokeWidth=2;" vertex="1" parent="1">
          <mxGeometry x="2700" y="300" width="140" height="110" as="geometry" />
        </mxCell>
        <mxCell id="dxJv8WcYAOSbDoX47LLL-110" style="edgeStyle=orthogonalEdgeStyle;rounded=0;orthogonalLoop=1;jettySize=auto;html=1;exitX=0.5;exitY=1;exitDx=0;exitDy=0;entryX=0.5;entryY=0;entryDx=0;entryDy=0;" edge="1" parent="1" source="dxJv8WcYAOSbDoX47LLL-107" target="Gy4se_GqXcURq6uCOFtO-11">
          <mxGeometry relative="1" as="geometry" />
        </mxCell>
        <mxCell id="dxJv8WcYAOSbDoX47LLL-112" style="edgeStyle=orthogonalEdgeStyle;rounded=0;orthogonalLoop=1;jettySize=auto;html=1;exitX=1;exitY=0.5;exitDx=0;exitDy=0;" edge="1" parent="1" source="dxJv8WcYAOSbDoX47LLL-107">
          <mxGeometry relative="1" as="geometry">
            <mxPoint x="320" y="615" as="targetPoint" />
          </mxGeometry>
        </mxCell>
        <mxCell id="dxJv8WcYAOSbDoX47LLL-107" value="IF error is encountered" style="rhombus;whiteSpace=wrap;html=1;strokeWidth=2;" vertex="1" parent="1">
          <mxGeometry x="97.5" y="570.02" width="105" height="90" as="geometry" />
        </mxCell>
        <mxCell id="dxJv8WcYAOSbDoX47LLL-113" value="&lt;b&gt;TRUE&lt;/b&gt;" style="text;html=1;align=center;verticalAlign=middle;resizable=0;points=[];autosize=1;strokeColor=none;fillColor=none;" vertex="1" parent="1">
          <mxGeometry x="202.5" y="585" width="60" height="30" as="geometry" />
        </mxCell>
        <mxCell id="dxJv8WcYAOSbDoX47LLL-114" value="&lt;b&gt;FALSE&lt;/b&gt;" style="text;html=1;align=center;verticalAlign=middle;resizable=0;points=[];autosize=1;strokeColor=none;fillColor=none;" vertex="1" parent="1">
          <mxGeometry x="150" y="660" width="60" height="30" as="geometry" />
        </mxCell>
        <mxCell id="dxJv8WcYAOSbDoX47LLL-118" style="edgeStyle=orthogonalEdgeStyle;rounded=0;orthogonalLoop=1;jettySize=auto;html=1;exitX=1;exitY=0.5;exitDx=0;exitDy=0;" edge="1" parent="1" source="dxJv8WcYAOSbDoX47LLL-119">
          <mxGeometry relative="1" as="geometry">
            <mxPoint x="320" y="944.98" as="targetPoint" />
          </mxGeometry>
        </mxCell>
        <mxCell id="dxJv8WcYAOSbDoX47LLL-119" value="IF error is encountered" style="rhombus;whiteSpace=wrap;html=1;strokeWidth=2;" vertex="1" parent="1">
          <mxGeometry x="97.5" y="900" width="105" height="90" as="geometry" />
        </mxCell>
        <mxCell id="dxJv8WcYAOSbDoX47LLL-120" value="&lt;b&gt;TRUE&lt;/b&gt;" style="text;html=1;align=center;verticalAlign=middle;resizable=0;points=[];autosize=1;strokeColor=none;fillColor=none;" vertex="1" parent="1">
          <mxGeometry x="202.5" y="914.98" width="60" height="30" as="geometry" />
        </mxCell>
        <mxCell id="dxJv8WcYAOSbDoX47LLL-121" value="&lt;b&gt;FALSE&lt;/b&gt;" style="text;html=1;align=center;verticalAlign=middle;resizable=0;points=[];autosize=1;strokeColor=none;fillColor=none;" vertex="1" parent="1">
          <mxGeometry x="150" y="989.98" width="60" height="30" as="geometry" />
        </mxCell>
        <mxCell id="dxJv8WcYAOSbDoX47LLL-124" style="edgeStyle=orthogonalEdgeStyle;rounded=0;orthogonalLoop=1;jettySize=auto;html=1;exitX=0.5;exitY=1;exitDx=0;exitDy=0;" edge="1" parent="1" source="dxJv8WcYAOSbDoX47LLL-123" target="dxJv8WcYAOSbDoX47LLL-106">
          <mxGeometry relative="1" as="geometry" />
        </mxCell>
        <mxCell id="dxJv8WcYAOSbDoX47LLL-123" value="EXECUTE &lt;br&gt;CPU-MEM*" style="whiteSpace=wrap;html=1;strokeWidth=2;" vertex="1" parent="1">
          <mxGeometry x="2710.0000000000005" y="210" width="120" height="60" as="geometry" />
        </mxCell>
        <mxCell id="dxJv8WcYAOSbDoX47LLL-125" value="PROMPT end of process" style="shape=parallelogram;perimeter=parallelogramPerimeter;whiteSpace=wrap;html=1;fixedSize=1;strokeWidth=2;" vertex="1" parent="1">
          <mxGeometry x="55" y="1155" width="190" height="60" as="geometry" />
        </mxCell>
        <mxCell id="dxJv8WcYAOSbDoX47LLL-128" style="edgeStyle=orthogonalEdgeStyle;rounded=0;orthogonalLoop=1;jettySize=auto;html=1;exitX=0.5;exitY=1;exitDx=0;exitDy=0;entryX=0.5;entryY=0;entryDx=0;entryDy=0;entryPerimeter=0;" edge="1" parent="1" source="dxJv8WcYAOSbDoX47LLL-126" target="Gy4se_GqXcURq6uCOFtO-32">
          <mxGeometry relative="1" as="geometry" />
        </mxCell>
        <mxCell id="dxJv8WcYAOSbDoX47LLL-126" value="PROMPT user of &lt;br&gt;error" style="shape=parallelogram;perimeter=parallelogramPerimeter;whiteSpace=wrap;html=1;fixedSize=1;strokeWidth=2;" vertex="1" parent="1">
          <mxGeometry x="425" y="200" width="140" height="60" as="geometry" />
        </mxCell>
        <mxCell id="dxJv8WcYAOSbDoX47LLL-140" style="edgeStyle=orthogonalEdgeStyle;rounded=0;orthogonalLoop=1;jettySize=auto;html=1;exitX=0.5;exitY=1;exitDx=0;exitDy=0;" edge="1" parent="1" source="dxJv8WcYAOSbDoX47LLL-129">
          <mxGeometry relative="1" as="geometry">
            <mxPoint x="2770" y="540" as="targetPoint" />
            <Array as="points">
              <mxPoint x="2975" y="540" />
            </Array>
          </mxGeometry>
        </mxCell>
        <mxCell id="dxJv8WcYAOSbDoX47LLL-129" value="PROMPT user of &lt;br&gt;error" style="shape=parallelogram;perimeter=parallelogramPerimeter;whiteSpace=wrap;html=1;fixedSize=1;strokeWidth=2;" vertex="1" parent="1">
          <mxGeometry x="2905" y="325" width="140" height="60" as="geometry" />
        </mxCell>
        <mxCell id="dxJv8WcYAOSbDoX47LLL-138" style="edgeStyle=orthogonalEdgeStyle;rounded=0;orthogonalLoop=1;jettySize=auto;html=1;exitX=0.5;exitY=1;exitDx=0;exitDy=0;entryX=0.5;entryY=0;entryDx=0;entryDy=0;entryPerimeter=0;" edge="1" parent="1" source="dxJv8WcYAOSbDoX47LLL-132" target="Gy4se_GqXcURq6uCOFtO-88">
          <mxGeometry relative="1" as="geometry" />
        </mxCell>
        <mxCell id="dxJv8WcYAOSbDoX47LLL-132" value="PROMPT user of successful assembler completion" style="shape=parallelogram;perimeter=parallelogramPerimeter;whiteSpace=wrap;html=1;fixedSize=1;strokeWidth=2;" vertex="1" parent="1">
          <mxGeometry x="2675" y="447.52" width="190" height="60" as="geometry" />
        </mxCell>
        <mxCell id="dxJv8WcYAOSbDoX47LLL-134" value="&lt;b&gt;TRUE&lt;/b&gt;" style="text;html=1;strokeColor=none;fillColor=none;align=center;verticalAlign=middle;whiteSpace=wrap;rounded=0;" vertex="1" parent="1">
          <mxGeometry x="2770" y="410" width="60" height="30" as="geometry" />
        </mxCell>
        <mxCell id="dxJv8WcYAOSbDoX47LLL-137" value="&lt;b&gt;FALSE&lt;/b&gt;" style="text;html=1;strokeColor=none;fillColor=none;align=center;verticalAlign=middle;whiteSpace=wrap;rounded=0;" vertex="1" parent="1">
          <mxGeometry x="2840" y="325" width="60" height="30" as="geometry" />
        </mxCell>
        <mxCell id="dxJv8WcYAOSbDoX47LLL-141" value="RETURN" style="strokeWidth=2;html=1;shape=mxgraph.flowchart.start_1;whiteSpace=wrap;" vertex="1" parent="1">
          <mxGeometry x="2930.0000000000005" y="1056.25" width="100" height="60" as="geometry" />
        </mxCell>
        <mxCell id="dxJv8WcYAOSbDoX47LLL-142" value="" style="edgeStyle=orthogonalEdgeStyle;rounded=0;orthogonalLoop=1;jettySize=auto;html=1;entryX=0.5;entryY=0;entryDx=0;entryDy=0;" edge="1" parent="1" source="dxJv8WcYAOSbDoX47LLL-143" target="dxJv8WcYAOSbDoX47LLL-145">
          <mxGeometry relative="1" as="geometry">
            <mxPoint x="2770.0490909090913" y="832.5" as="targetPoint" />
          </mxGeometry>
        </mxCell>
        <mxCell id="dxJv8WcYAOSbDoX47LLL-143" value="ASM_MAKETXT" style="strokeWidth=2;html=1;shape=mxgraph.flowchart.start_1;whiteSpace=wrap;" vertex="1" parent="1">
          <mxGeometry x="2720" y="742.5" width="100" height="60" as="geometry" />
        </mxCell>
        <mxCell id="dxJv8WcYAOSbDoX47LLL-144" style="edgeStyle=orthogonalEdgeStyle;rounded=0;orthogonalLoop=1;jettySize=auto;html=1;exitX=0.5;exitY=1;exitDx=0;exitDy=0;entryX=0.5;entryY=0;entryDx=0;entryDy=0;" edge="1" parent="1" source="dxJv8WcYAOSbDoX47LLL-145" target="dxJv8WcYAOSbDoX47LLL-150">
          <mxGeometry relative="1" as="geometry">
            <mxPoint x="2770" y="932.5" as="targetPoint" />
          </mxGeometry>
        </mxCell>
        <mxCell id="dxJv8WcYAOSbDoX47LLL-145" value="LOAD memory initialization list" style="whiteSpace=wrap;html=1;strokeWidth=2;" vertex="1" parent="1">
          <mxGeometry x="2710.0000000000005" y="832.5" width="120" height="60" as="geometry" />
        </mxCell>
        <mxCell id="dxJv8WcYAOSbDoX47LLL-146" style="edgeStyle=orthogonalEdgeStyle;rounded=0;orthogonalLoop=1;jettySize=auto;html=1;exitX=0.5;exitY=1;exitDx=0;exitDy=0;entryX=0.5;entryY=0;entryDx=0;entryDy=0;" edge="1" parent="1" source="dxJv8WcYAOSbDoX47LLL-148" target="dxJv8WcYAOSbDoX47LLL-158">
          <mxGeometry relative="1" as="geometry">
            <mxPoint x="2770" y="1178.77" as="targetPoint" />
          </mxGeometry>
        </mxCell>
        <mxCell id="dxJv8WcYAOSbDoX47LLL-147" style="edgeStyle=orthogonalEdgeStyle;rounded=0;orthogonalLoop=1;jettySize=auto;html=1;exitX=1;exitY=0.5;exitDx=0;exitDy=0;entryX=0;entryY=0.5;entryDx=0;entryDy=0;entryPerimeter=0;" edge="1" parent="1" source="dxJv8WcYAOSbDoX47LLL-148" target="dxJv8WcYAOSbDoX47LLL-141">
          <mxGeometry relative="1" as="geometry">
            <mxPoint x="2915" y="1086.25" as="targetPoint" />
          </mxGeometry>
        </mxCell>
        <mxCell id="dxJv8WcYAOSbDoX47LLL-148" value="IF next item != NULL" style="rhombus;whiteSpace=wrap;html=1;strokeWidth=2;" vertex="1" parent="1">
          <mxGeometry x="2700" y="1031.25" width="140" height="110" as="geometry" />
        </mxCell>
        <mxCell id="dxJv8WcYAOSbDoX47LLL-149" style="edgeStyle=orthogonalEdgeStyle;rounded=0;orthogonalLoop=1;jettySize=auto;html=1;exitX=0.5;exitY=1;exitDx=0;exitDy=0;" edge="1" parent="1" source="dxJv8WcYAOSbDoX47LLL-150" target="dxJv8WcYAOSbDoX47LLL-148">
          <mxGeometry relative="1" as="geometry" />
        </mxCell>
        <mxCell id="dxJv8WcYAOSbDoX47LLL-150" value="INITALIZE new txt file" style="whiteSpace=wrap;html=1;strokeWidth=2;" vertex="1" parent="1">
          <mxGeometry x="2710.0000000000005" y="922.5" width="120" height="60" as="geometry" />
        </mxCell>
        <mxCell id="dxJv8WcYAOSbDoX47LLL-155" value="&lt;b&gt;TRUE&lt;/b&gt;" style="text;html=1;strokeColor=none;fillColor=none;align=center;verticalAlign=middle;whiteSpace=wrap;rounded=0;" vertex="1" parent="1">
          <mxGeometry x="2770" y="1138.75" width="60" height="30" as="geometry" />
        </mxCell>
        <mxCell id="dxJv8WcYAOSbDoX47LLL-156" value="&lt;b&gt;FALSE&lt;/b&gt;" style="text;html=1;strokeColor=none;fillColor=none;align=center;verticalAlign=middle;whiteSpace=wrap;rounded=0;" vertex="1" parent="1">
          <mxGeometry x="2840" y="1056.25" width="60" height="30" as="geometry" />
        </mxCell>
        <mxCell id="dxJv8WcYAOSbDoX47LLL-162" style="edgeStyle=orthogonalEdgeStyle;rounded=0;orthogonalLoop=1;jettySize=auto;html=1;exitX=0.5;exitY=1;exitDx=0;exitDy=0;entryX=0.5;entryY=0;entryDx=0;entryDy=0;" edge="1" parent="1" source="dxJv8WcYAOSbDoX47LLL-158" target="dxJv8WcYAOSbDoX47LLL-159">
          <mxGeometry relative="1" as="geometry" />
        </mxCell>
        <mxCell id="dxJv8WcYAOSbDoX47LLL-158" value="WRITE &quot;ADDR=&quot;+address+&quot;; BUS=&quot;+byte/bus data+&quot;; MainMemory();&quot;" style="whiteSpace=wrap;html=1;strokeWidth=2;" vertex="1" parent="1">
          <mxGeometry x="2650" y="1188.73" width="240" height="60" as="geometry" />
        </mxCell>
        <mxCell id="dxJv8WcYAOSbDoX47LLL-164" style="edgeStyle=orthogonalEdgeStyle;rounded=0;orthogonalLoop=1;jettySize=auto;html=1;exitX=0;exitY=0.5;exitDx=0;exitDy=0;" edge="1" parent="1" source="dxJv8WcYAOSbDoX47LLL-159">
          <mxGeometry relative="1" as="geometry">
            <mxPoint x="2770" y="1010" as="targetPoint" />
            <Array as="points">
              <mxPoint x="2620" y="1309" />
              <mxPoint x="2620" y="1010" />
            </Array>
          </mxGeometry>
        </mxCell>
        <mxCell id="dxJv8WcYAOSbDoX47LLL-159" value="GOTO next line" style="whiteSpace=wrap;html=1;strokeWidth=2;" vertex="1" parent="1">
          <mxGeometry x="2710" y="1278.75" width="120" height="60" as="geometry" />
        </mxCell>
        <mxCell id="dxJv8WcYAOSbDoX47LLL-161" style="edgeStyle=orthogonalEdgeStyle;rounded=0;orthogonalLoop=1;jettySize=auto;html=1;exitX=0.5;exitY=1;exitDx=0;exitDy=0;" edge="1" parent="1" source="dxJv8WcYAOSbDoX47LLL-160" target="dxJv8WcYAOSbDoX47LLL-46">
          <mxGeometry relative="1" as="geometry" />
        </mxCell>
        <mxCell id="dxJv8WcYAOSbDoX47LLL-160" value="GOTO next item" style="whiteSpace=wrap;html=1;strokeWidth=2;" vertex="1" parent="1">
          <mxGeometry x="2210.0000000000005" y="575" width="120" height="60" as="geometry" />
        </mxCell>
        <mxCell id="dxJv8WcYAOSbDoX47LLL-165" value="&lt;div style=&quot;text-align: justify;&quot;&gt;&lt;span style=&quot;background-color: initial;&quot;&gt;*CPU-MEM (Laboratory Exercise #5) will be executed where&lt;/span&gt;&lt;/div&gt;&lt;font style=&quot;font-size: 8px;&quot;&gt;&lt;div style=&quot;text-align: justify;&quot;&gt;&lt;span style=&quot;background-color: initial;&quot;&gt;the memory initiatization list from ASM_INITALIZE will&lt;/span&gt;&lt;/div&gt;&lt;div style=&quot;text-align: justify;&quot;&gt;&lt;span style=&quot;background-color: initial;&quot;&gt;replace the initMemory() function in the original&lt;/span&gt;&lt;/div&gt;&lt;div style=&quot;text-align: justify;&quot;&gt;&lt;span style=&quot;background-color: initial;&quot;&gt;laboratory exercise.&lt;/span&gt;&lt;/div&gt;&lt;/font&gt;" style="text;html=1;align=center;verticalAlign=middle;resizable=0;points=[];autosize=1;strokeColor=none;fillColor=none;fontStyle=3;fontSize=8;" vertex="1" parent="1">
          <mxGeometry x="2840" y="227.52" width="250" height="50" as="geometry" />
        </mxCell>
      </root>
    </mxGraphModel>
  </diagram>
</mxfile>
